<svg id="visual" viewBox="0 0 900 600" width="900" height="600" xmlns="http://www.w3.org/2000/svg" xmlns:xlink="http://www.w3.org/1999/xlink" version="1.1"><path d="M0 525L11.5 503.2C23 481.3 46 437.7 69 386C92 334.3 115 274.7 138.2 278.3C161.3 282 184.7 349 207.8 366.8C231 384.7 254 353.3 277 353.8C300 354.3 323 386.7 346 370.7C369 354.7 392 290.3 415.2 253.8C438.3 217.3 461.7 208.7 484.8 208.2C508 207.7 531 215.3 554 207.3C577 199.3 600 175.7 623 181.5C646 187.3 669 222.7 692.2 232C715.3 241.3 738.7 224.7 761.8 219.7C785 214.7 808 221.3 831 277.7C854 334 877 440 888.5 493L900 546L900 0L888.5 0C877 0 854 0 831 0C808 0 785 0 761.8 0C738.7 0 715.3 0 692.2 0C669 0 646 0 623 0C600 0 577 0 554 0C531 0 508 0 484.8 0C461.7 0 438.3 0 415.2 0C392 0 369 0 346 0C323 0 300 0 277 0C254 0 231 0 207.8 0C184.7 0 161.3 0 138.2 0C115 0 92 0 69 0C46 0 23 0 11.5 0L0 0Z" fill="#4338ca"></path><path d="M0 182L11.5 205C23 228 46 274 69 318.5C92 363 115 406 138.2 395.3C161.3 384.7 184.7 320.3 207.8 277.2C231 234 254 212 277 201.8C300 191.7 323 193.3 346 191C369 188.7 392 182.3 415.2 192.3C438.3 202.3 461.7 228.7 484.8 244.5C508 260.3 531 265.7 554 269C577 272.3 600 273.7 623 301C646 328.3 669 381.7 692.2 360.7C715.3 339.7 738.7 244.3 761.8 251C785 257.7 808 366.3 831 399.3C854 432.3 877 389.7 888.5 368.3L900 347L900 0L888.5 0C877 0 854 0 831 0C808 0 785 0 761.8 0C738.7 0 715.3 0 692.2 0C669 0 646 0 623 0C600 0 577 0 554 0C531 0 508 0 484.8 0C461.7 0 438.3 0 415.2 0C392 0 369 0 346 0C323 0 300 0 277 0C254 0 231 0 207.8 0C184.7 0 161.3 0 138.2 0C115 0 92 0 69 0C46 0 23 0 11.5 0L0 0Z" fill="#3837bc"></path><path d="M0 330L11.5 329.7C23 329.3 46 328.7 69 296.2C92 263.7 115 199.3 138.2 191.8C161.3 184.3 184.7 233.7 207.8 270.5C231 307.3 254 331.7 277 342.5C300 353.3 323 350.7 346 345.7C369 340.7 392 333.3 415.2 329.8C438.3 326.3 461.7 326.7 484.8 341.5C508 356.3 531 385.7 554 393.3C577 401 600 387 623 371.7C646 356.3 669 339.7 692.2 353.3C715.3 367 738.7 411 761.8 420C785 429 808 403 831 401C854 399 877 421 888.5 432L900 443L900 0L888.5 0C877 0 854 0 831 0C808 0 785 0 761.8 0C738.7 0 715.3 0 692.2 0C669 0 646 0 623 0C600 0 577 0 554 0C531 0 508 0 484.8 0C461.7 0 438.3 0 415.2 0C392 0 369 0 346 0C323 0 300 0 277 0C254 0 231 0 207.8 0C184.7 0 161.3 0 138.2 0C115 0 92 0 69 0C46 0 23 0 11.5 0L0 0Z" fill="#2f35af"></path><path d="M0 244L11.5 249.7C23 255.3 46 266.7 69 291.8C92 317 115 356 138.2 369.2C161.3 382.3 184.7 369.7 207.8 336C231 302.3 254 247.7 277 250C300 252.3 323 311.7 346 309C369 306.3 392 241.7 415.2 215.8C438.3 190 461.7 203 484.8 220.5C508 238 531 260 554 268.3C577 276.7 600 271.3 623 254C646 236.7 669 207.3 692.2 196.5C715.3 185.7 738.7 193.3 761.8 218.3C785 243.3 808 285.7 831 276C854 266.3 877 204.7 888.5 173.8L900 143L900 0L888.5 0C877 0 854 0 831 0C808 0 785 0 761.8 0C738.7 0 715.3 0 692.2 0C669 0 646 0 623 0C600 0 577 0 554 0C531 0 508 0 484.8 0C461.7 0 438.3 0 415.2 0C392 0 369 0 346 0C323 0 300 0 277 0C254 0 231 0 207.8 0C184.7 0 161.3 0 138.2 0C115 0 92 0 69 0C46 0 23 0 11.5 0L0 0Z" fill="#2634a1"></path><path d="M0 303L11.5 307.5C23 312 46 321 69 326.7C92 332.3 115 334.7 138.2 297.5C161.3 260.3 184.7 183.7 207.8 149.8C231 116 254 125 277 127.3C300 129.7 323 125.3 346 155.5C369 185.7 392 250.3 415.2 254C438.3 257.7 461.7 200.3 484.8 194.5C508 188.7 531 234.3 554 267.2C577 300 600 320 623 324.3C646 328.7 669 317.3 692.2 305.7C715.3 294 738.7 282 761.8 247.8C785 213.7 808 157.3 831 142.7C854 128 877 155 888.5 168.5L900 182L900 0L888.5 0C877 0 854 0 831 0C808 0 785 0 761.8 0C738.7 0 715.3 0 692.2 0C669 0 646 0 623 0C600 0 577 0 554 0C531 0 508 0 484.8 0C461.7 0 438.3 0 415.2 0C392 0 369 0 346 0C323 0 300 0 277 0C254 0 231 0 207.8 0C184.7 0 161.3 0 138.2 0C115 0 92 0 69 0C46 0 23 0 11.5 0L0 0Z" fill="#1f3193"></path><path d="M0 133L11.5 130.3C23 127.7 46 122.3 69 122.7C92 123 115 129 138.2 142C161.3 155 184.7 175 207.8 201.7C231 228.3 254 261.7 277 278.7C300 295.7 323 296.3 346 302.5C369 308.7 392 320.3 415.2 315.5C438.3 310.7 461.7 289.3 484.8 270C508 250.7 531 233.3 554 216.2C577 199 600 182 623 168.3C646 154.7 669 144.3 692.2 136.8C715.3 129.3 738.7 124.7 761.8 123.8C785 123 808 126 831 135.5C854 145 877 161 888.5 169L900 177L900 0L888.5 0C877 0 854 0 831 0C808 0 785 0 761.8 0C738.7 0 715.3 0 692.2 0C669 0 646 0 623 0C600 0 577 0 554 0C531 0 508 0 484.8 0C461.7 0 438.3 0 415.2 0C392 0 369 0 346 0C323 0 300 0 277 0C254 0 231 0 207.8 0C184.7 0 161.3 0 138.2 0C115 0 92 0 69 0C46 0 23 0 11.5 0L0 0Z" fill="#1a2e85"></path><path d="M0 293L11.5 270C23 247 46 201 69 186C92 171 115 187 138.2 174C161.3 161 184.7 119 207.8 99C231 79 254 81 277 94.2C300 107.3 323 131.7 346 138.3C369 145 392 134 415.2 139.2C438.3 144.3 461.7 165.7 484.8 192.2C508 218.7 531 250.3 554 260.8C577 271.3 600 260.7 623 241.5C646 222.3 669 194.7 692.2 198.7C715.3 202.7 738.7 238.3 761.8 224C785 209.7 808 145.3 831 127.2C854 109 877 137 888.5 151L900 165L900 0L888.5 0C877 0 854 0 831 0C808 0 785 0 761.8 0C738.7 0 715.3 0 692.2 0C669 0 646 0 623 0C600 0 577 0 554 0C531 0 508 0 484.8 0C461.7 0 438.3 0 415.2 0C392 0 369 0 346 0C323 0 300 0 277 0C254 0 231 0 207.8 0C184.7 0 161.3 0 138.2 0C115 0 92 0 69 0C46 0 23 0 11.5 0L0 0Z" fill="#162c77"></path><path d="M0 181L11.5 180.3C23 179.7 46 178.3 69 169.8C92 161.3 115 145.7 138.2 153.7C161.3 161.7 184.7 193.3 207.8 200.7C231 208 254 191 277 188.5C300 186 323 198 346 179C369 160 392 110 415.2 103C438.3 96 461.7 132 484.8 157C508 182 531 196 554 195C577 194 600 178 623 168C646 158 669 154 692.2 139.3C715.3 124.7 738.7 99.3 761.8 109.8C785 120.3 808 166.7 831 195.7C854 224.7 877 236.3 888.5 242.2L900 248L900 0L888.5 0C877 0 854 0 831 0C808 0 785 0 761.8 0C738.7 0 715.3 0 692.2 0C669 0 646 0 623 0C600 0 577 0 554 0C531 0 508 0 484.8 0C461.7 0 438.3 0 415.2 0C392 0 369 0 346 0C323 0 300 0 277 0C254 0 231 0 207.8 0C184.7 0 161.3 0 138.2 0C115 0 92 0 69 0C46 0 23 0 11.5 0L0 0Z" fill="#142869"></path><path d="M0 148L11.5 136.3C23 124.7 46 101.3 69 92.2C92 83 115 88 138.2 92.8C161.3 97.7 184.7 102.3 207.8 119.8C231 137.3 254 167.7 277 181.5C300 195.3 323 192.7 346 187.7C369 182.7 392 175.3 415.2 165C438.3 154.7 461.7 141.3 484.8 142.7C508 144 531 160 554 154.7C577 149.3 600 122.7 623 121.3C646 120 669 144 692.2 154.2C715.3 164.3 738.7 160.7 761.8 148.5C785 136.3 808 115.7 831 122.3C854 129 877 163 888.5 180L900 197L900 0L888.5 0C877 0 854 0 831 0C808 0 785 0 761.8 0C738.7 0 715.3 0 692.2 0C669 0 646 0 623 0C600 0 577 0 554 0C531 0 508 0 484.8 0C461.7 0 438.3 0 415.2 0C392 0 369 0 346 0C323 0 300 0 277 0C254 0 231 0 207.8 0C184.7 0 161.3 0 138.2 0C115 0 92 0 69 0C46 0 23 0 11.5 0L0 0Z" fill="#14255c"></path><path d="M0 145L11.5 146.7C23 148.3 46 151.7 69 146.5C92 141.3 115 127.7 138.2 119C161.3 110.3 184.7 106.7 207.8 94.2C231 81.7 254 60.3 277 69.8C300 79.3 323 119.7 346 139.7C369 159.7 392 159.3 415.2 139.8C438.3 120.3 461.7 81.7 484.8 80.7C508 79.7 531 116.3 554 119.7C577 123 600 93 623 73.7C646 54.3 669 45.7 692.2 51.7C715.3 57.7 738.7 78.3 761.8 87.5C785 96.7 808 94.3 831 88.8C854 83.3 877 74.7 888.5 70.3L900 66L900 0L888.5 0C877 0 854 0 831 0C808 0 785 0 761.8 0C738.7 0 715.3 0 692.2 0C669 0 646 0 623 0C600 0 577 0 554 0C531 0 508 0 484.8 0C461.7 0 438.3 0 415.2 0C392 0 369 0 346 0C323 0 300 0 277 0C254 0 231 0 207.8 0C184.7 0 161.3 0 138.2 0C115 0 92 0 69 0C46 0 23 0 11.5 0L0 0Z" fill="#13214e"></path><path d="M0 87L11.5 81.5C23 76 46 65 69 62.5C92 60 115 66 138.2 62.5C161.3 59 184.7 46 207.8 40.8C231 35.7 254 38.3 277 45.5C300 52.7 323 64.3 346 68.2C369 72 392 68 415.2 75.7C438.3 83.3 461.7 102.7 484.8 100.2C508 97.7 531 73.3 554 61.5C577 49.7 600 50.3 623 46C646 41.7 669 32.3 692.2 35.8C715.3 39.3 738.7 55.7 761.8 69.7C785 83.7 808 95.3 831 99.5C854 103.7 877 100.3 888.5 98.7L900 97L900 0L888.5 0C877 0 854 0 831 0C808 0 785 0 761.8 0C738.7 0 715.3 0 692.2 0C669 0 646 0 623 0C600 0 577 0 554 0C531 0 508 0 484.8 0C461.7 0 438.3 0 415.2 0C392 0 369 0 346 0C323 0 300 0 277 0C254 0 231 0 207.8 0C184.7 0 161.3 0 138.2 0C115 0 92 0 69 0C46 0 23 0 11.5 0L0 0Z" fill="#131e41"></path><path d="M0 25L11.5 32.3C23 39.7 46 54.3 69 55.5C92 56.7 115 44.3 138.2 43.8C161.3 43.3 184.7 54.7 207.8 57.5C231 60.3 254 54.7 277 48.8C300 43 323 37 346 30.3C369 23.7 392 16.3 415.2 23.3C438.3 30.3 461.7 51.7 484.8 56.2C508 60.7 531 48.3 554 44.3C577 40.3 600 44.7 623 42.3C646 40 669 31 692.2 32.8C715.3 34.7 738.7 47.3 761.8 47C785 46.7 808 33.3 831 36C854 38.7 877 57.3 888.5 66.7L900 76L900 0L888.5 0C877 0 854 0 831 0C808 0 785 0 761.8 0C738.7 0 715.3 0 692.2 0C669 0 646 0 623 0C600 0 577 0 554 0C531 0 508 0 484.8 0C461.7 0 438.3 0 415.2 0C392 0 369 0 346 0C323 0 300 0 277 0C254 0 231 0 207.8 0C184.7 0 161.3 0 138.2 0C115 0 92 0 69 0C46 0 23 0 11.5 0L0 0Z" fill="#131a34"></path></svg>