<svg id="visual" viewBox="0 0 900 600" width="900" height="600" xmlns="http://www.w3.org/2000/svg" xmlns:xlink="http://www.w3.org/1999/xlink" version="1.1"><path d="M0 73L11.5 94.8C23 116.7 46 160.3 69 212C92 263.7 115 323.3 138.2 319.7C161.3 316 184.7 249 207.8 231.2C231 213.3 254 244.7 277 244.2C300 243.7 323 211.3 346 227.3C369 243.3 392 307.7 415.2 344.2C438.3 380.7 461.7 389.3 484.8 389.8C508 390.3 531 382.7 554 390.7C577 398.7 600 422.3 623 416.5C646 410.7 669 375.3 692.2 366C715.3 356.7 738.7 373.3 761.8 378.3C785 383.3 808 376.7 831 320.3C854 264 877 158 888.5 105L900 52L900 601L888.5 601C877 601 854 601 831 601C808 601 785 601 761.8 601C738.7 601 715.3 601 692.2 601C669 601 646 601 623 601C600 601 577 601 554 601C531 601 508 601 484.8 601C461.7 601 438.3 601 415.2 601C392 601 369 601 346 601C323 601 300 601 277 601C254 601 231 601 207.8 601C184.7 601 161.3 601 138.2 601C115 601 92 601 69 601C46 601 23 601 11.5 601L0 601Z" fill="#4338ca"></path><path d="M0 416L11.5 393C23 370 46 324 69 279.5C92 235 115 192 138.2 202.7C161.3 213.3 184.7 277.7 207.8 320.8C231 364 254 386 277 396.2C300 406.3 323 404.7 346 407C369 409.3 392 415.7 415.2 405.7C438.3 395.7 461.7 369.3 484.8 353.5C508 337.7 531 332.3 554 329C577 325.7 600 324.3 623 297C646 269.7 669 216.3 692.2 237.3C715.3 258.3 738.7 353.7 761.8 347C785 340.3 808 231.7 831 198.7C854 165.7 877 208.3 888.5 229.7L900 251L900 601L888.5 601C877 601 854 601 831 601C808 601 785 601 761.8 601C738.7 601 715.3 601 692.2 601C669 601 646 601 623 601C600 601 577 601 554 601C531 601 508 601 484.8 601C461.7 601 438.3 601 415.2 601C392 601 369 601 346 601C323 601 300 601 277 601C254 601 231 601 207.8 601C184.7 601 161.3 601 138.2 601C115 601 92 601 69 601C46 601 23 601 11.5 601L0 601Z" fill="#3837bc"></path><path d="M0 268L11.5 268.3C23 268.7 46 269.3 69 301.8C92 334.3 115 398.7 138.2 406.2C161.3 413.7 184.7 364.3 207.8 327.5C231 290.7 254 266.3 277 255.5C300 244.7 323 247.3 346 252.3C369 257.3 392 264.7 415.2 268.2C438.3 271.7 461.7 271.3 484.8 256.5C508 241.7 531 212.3 554 204.7C577 197 600 211 623 226.3C646 241.7 669 258.3 692.2 244.7C715.3 231 738.7 187 761.8 178C785 169 808 195 831 197C854 199 877 177 888.5 166L900 155L900 601L888.5 601C877 601 854 601 831 601C808 601 785 601 761.8 601C738.7 601 715.3 601 692.2 601C669 601 646 601 623 601C600 601 577 601 554 601C531 601 508 601 484.8 601C461.7 601 438.3 601 415.2 601C392 601 369 601 346 601C323 601 300 601 277 601C254 601 231 601 207.8 601C184.7 601 161.3 601 138.2 601C115 601 92 601 69 601C46 601 23 601 11.5 601L0 601Z" fill="#2f35af"></path><path d="M0 354L11.5 348.3C23 342.7 46 331.3 69 306.2C92 281 115 242 138.2 228.8C161.3 215.7 184.7 228.3 207.8 262C231 295.7 254 350.3 277 348C300 345.7 323 286.3 346 289C369 291.7 392 356.3 415.2 382.2C438.3 408 461.7 395 484.8 377.5C508 360 531 338 554 329.7C577 321.3 600 326.7 623 344C646 361.3 669 390.7 692.2 401.5C715.3 412.3 738.7 404.7 761.8 379.7C785 354.7 808 312.3 831 322C854 331.7 877 393.3 888.5 424.2L900 455L900 601L888.5 601C877 601 854 601 831 601C808 601 785 601 761.8 601C738.7 601 715.3 601 692.2 601C669 601 646 601 623 601C600 601 577 601 554 601C531 601 508 601 484.8 601C461.7 601 438.3 601 415.2 601C392 601 369 601 346 601C323 601 300 601 277 601C254 601 231 601 207.8 601C184.7 601 161.3 601 138.2 601C115 601 92 601 69 601C46 601 23 601 11.5 601L0 601Z" fill="#2634a1"></path><path d="M0 295L11.5 290.5C23 286 46 277 69 271.3C92 265.7 115 263.3 138.2 300.5C161.3 337.7 184.7 414.3 207.8 448.2C231 482 254 473 277 470.7C300 468.3 323 472.7 346 442.5C369 412.3 392 347.7 415.2 344C438.3 340.3 461.7 397.7 484.8 403.5C508 409.3 531 363.7 554 330.8C577 298 600 278 623 273.7C646 269.3 669 280.7 692.2 292.3C715.3 304 738.7 316 761.8 350.2C785 384.3 808 440.7 831 455.3C854 470 877 443 888.5 429.5L900 416L900 601L888.5 601C877 601 854 601 831 601C808 601 785 601 761.8 601C738.7 601 715.3 601 692.2 601C669 601 646 601 623 601C600 601 577 601 554 601C531 601 508 601 484.8 601C461.7 601 438.3 601 415.2 601C392 601 369 601 346 601C323 601 300 601 277 601C254 601 231 601 207.8 601C184.7 601 161.3 601 138.2 601C115 601 92 601 69 601C46 601 23 601 11.5 601L0 601Z" fill="#1f3193"></path><path d="M0 465L11.5 467.7C23 470.3 46 475.7 69 475.3C92 475 115 469 138.2 456C161.3 443 184.7 423 207.8 396.3C231 369.7 254 336.3 277 319.3C300 302.3 323 301.7 346 295.5C369 289.3 392 277.7 415.2 282.5C438.3 287.3 461.7 308.7 484.8 328C508 347.3 531 364.7 554 381.8C577 399 600 416 623 429.7C646 443.3 669 453.7 692.2 461.2C715.3 468.7 738.7 473.3 761.8 474.2C785 475 808 472 831 462.5C854 453 877 437 888.5 429L900 421L900 601L888.5 601C877 601 854 601 831 601C808 601 785 601 761.8 601C738.7 601 715.3 601 692.2 601C669 601 646 601 623 601C600 601 577 601 554 601C531 601 508 601 484.8 601C461.7 601 438.3 601 415.2 601C392 601 369 601 346 601C323 601 300 601 277 601C254 601 231 601 207.8 601C184.7 601 161.3 601 138.2 601C115 601 92 601 69 601C46 601 23 601 11.5 601L0 601Z" fill="#1a2e85"></path><path d="M0 305L11.5 328C23 351 46 397 69 412C92 427 115 411 138.2 424C161.3 437 184.7 479 207.8 499C231 519 254 517 277 503.8C300 490.7 323 466.3 346 459.7C369 453 392 464 415.2 458.8C438.3 453.7 461.7 432.3 484.8 405.8C508 379.3 531 347.7 554 337.2C577 326.7 600 337.3 623 356.5C646 375.7 669 403.3 692.2 399.3C715.3 395.3 738.7 359.7 761.8 374C785 388.3 808 452.7 831 470.8C854 489 877 461 888.5 447L900 433L900 601L888.5 601C877 601 854 601 831 601C808 601 785 601 761.8 601C738.7 601 715.3 601 692.2 601C669 601 646 601 623 601C600 601 577 601 554 601C531 601 508 601 484.8 601C461.7 601 438.3 601 415.2 601C392 601 369 601 346 601C323 601 300 601 277 601C254 601 231 601 207.8 601C184.7 601 161.3 601 138.2 601C115 601 92 601 69 601C46 601 23 601 11.5 601L0 601Z" fill="#162c77"></path><path d="M0 417L11.5 417.7C23 418.3 46 419.7 69 428.2C92 436.7 115 452.3 138.2 444.3C161.3 436.3 184.7 404.7 207.8 397.3C231 390 254 407 277 409.5C300 412 323 400 346 419C369 438 392 488 415.2 495C438.3 502 461.7 466 484.8 441C508 416 531 402 554 403C577 404 600 420 623 430C646 440 669 444 692.2 458.7C715.3 473.3 738.7 498.7 761.8 488.2C785 477.7 808 431.3 831 402.3C854 373.3 877 361.7 888.5 355.8L900 350L900 601L888.5 601C877 601 854 601 831 601C808 601 785 601 761.8 601C738.7 601 715.3 601 692.2 601C669 601 646 601 623 601C600 601 577 601 554 601C531 601 508 601 484.8 601C461.7 601 438.3 601 415.2 601C392 601 369 601 346 601C323 601 300 601 277 601C254 601 231 601 207.8 601C184.7 601 161.3 601 138.2 601C115 601 92 601 69 601C46 601 23 601 11.5 601L0 601Z" fill="#142869"></path><path d="M0 450L11.5 461.7C23 473.3 46 496.7 69 505.8C92 515 115 510 138.2 505.2C161.3 500.3 184.7 495.7 207.8 478.2C231 460.7 254 430.3 277 416.5C300 402.7 323 405.3 346 410.3C369 415.3 392 422.7 415.2 433C438.3 443.3 461.7 456.7 484.8 455.3C508 454 531 438 554 443.3C577 448.7 600 475.3 623 476.7C646 478 669 454 692.2 443.8C715.3 433.7 738.7 437.3 761.8 449.5C785 461.7 808 482.3 831 475.7C854 469 877 435 888.5 418L900 401L900 601L888.5 601C877 601 854 601 831 601C808 601 785 601 761.8 601C738.7 601 715.3 601 692.2 601C669 601 646 601 623 601C600 601 577 601 554 601C531 601 508 601 484.8 601C461.7 601 438.3 601 415.2 601C392 601 369 601 346 601C323 601 300 601 277 601C254 601 231 601 207.8 601C184.7 601 161.3 601 138.2 601C115 601 92 601 69 601C46 601 23 601 11.5 601L0 601Z" fill="#14255c"></path><path d="M0 453L11.5 451.3C23 449.7 46 446.3 69 451.5C92 456.7 115 470.3 138.2 479C161.3 487.7 184.7 491.3 207.8 503.8C231 516.3 254 537.7 277 528.2C300 518.7 323 478.3 346 458.3C369 438.3 392 438.7 415.2 458.2C438.3 477.7 461.7 516.3 484.8 517.3C508 518.3 531 481.7 554 478.3C577 475 600 505 623 524.3C646 543.7 669 552.3 692.2 546.3C715.3 540.3 738.7 519.7 761.8 510.5C785 501.3 808 503.7 831 509.2C854 514.7 877 523.3 888.5 527.7L900 532L900 601L888.5 601C877 601 854 601 831 601C808 601 785 601 761.8 601C738.7 601 715.3 601 692.2 601C669 601 646 601 623 601C600 601 577 601 554 601C531 601 508 601 484.8 601C461.7 601 438.3 601 415.2 601C392 601 369 601 346 601C323 601 300 601 277 601C254 601 231 601 207.8 601C184.7 601 161.3 601 138.2 601C115 601 92 601 69 601C46 601 23 601 11.5 601L0 601Z" fill="#13214e"></path><path d="M0 511L11.5 516.5C23 522 46 533 69 535.5C92 538 115 532 138.2 535.5C161.3 539 184.7 552 207.8 557.2C231 562.3 254 559.7 277 552.5C300 545.3 323 533.7 346 529.8C369 526 392 530 415.2 522.3C438.3 514.7 461.7 495.3 484.8 497.8C508 500.3 531 524.7 554 536.5C577 548.3 600 547.7 623 552C646 556.3 669 565.7 692.2 562.2C715.3 558.7 738.7 542.3 761.8 528.3C785 514.3 808 502.7 831 498.5C854 494.3 877 497.7 888.5 499.3L900 501L900 601L888.5 601C877 601 854 601 831 601C808 601 785 601 761.8 601C738.7 601 715.3 601 692.2 601C669 601 646 601 623 601C600 601 577 601 554 601C531 601 508 601 484.8 601C461.7 601 438.3 601 415.2 601C392 601 369 601 346 601C323 601 300 601 277 601C254 601 231 601 207.8 601C184.7 601 161.3 601 138.2 601C115 601 92 601 69 601C46 601 23 601 11.5 601L0 601Z" fill="#131e41"></path><path d="M0 573L11.5 565.7C23 558.3 46 543.7 69 542.5C92 541.3 115 553.7 138.2 554.2C161.3 554.7 184.7 543.3 207.8 540.5C231 537.7 254 543.3 277 549.2C300 555 323 561 346 567.7C369 574.3 392 581.7 415.2 574.7C438.3 567.7 461.7 546.3 484.8 541.8C508 537.3 531 549.7 554 553.7C577 557.7 600 553.3 623 555.7C646 558 669 567 692.2 565.2C715.3 563.3 738.7 550.7 761.8 551C785 551.3 808 564.7 831 562C854 559.3 877 540.7 888.5 531.3L900 522L900 601L888.5 601C877 601 854 601 831 601C808 601 785 601 761.8 601C738.7 601 715.3 601 692.2 601C669 601 646 601 623 601C600 601 577 601 554 601C531 601 508 601 484.8 601C461.7 601 438.3 601 415.2 601C392 601 369 601 346 601C323 601 300 601 277 601C254 601 231 601 207.8 601C184.7 601 161.3 601 138.2 601C115 601 92 601 69 601C46 601 23 601 11.5 601L0 601Z" fill="#131a34"></path></svg>